<svg width="29" height="29" viewBox="0 0 29 29" fill="none" xmlns="http://www.w3.org/2000/svg">
<path d="M2.27377 12.7254H11.6845C12.1004 12.7254 12.4994 12.5637 12.7935 12.2759C13.0877 11.9881 13.2529 11.5978 13.2529 11.1908V1.98289C13.2529 1.57587 13.0877 1.18553 12.7935 0.897729C12.4994 0.609927 12.1004 0.448242 11.6845 0.448242H2.27377C1.85779 0.448242 1.45885 0.609927 1.16471 0.897729C0.870569 1.18553 0.705322 1.57587 0.705322 1.98289V11.1908C0.705322 11.5978 0.870569 11.9881 1.16471 12.2759C1.45885 12.5637 1.85779 12.7254 2.27377 12.7254ZM17.9582 12.7254H27.3689C27.7849 12.7254 28.1839 12.5637 28.478 12.2759C28.7721 11.9881 28.9374 11.5978 28.9374 11.1908V1.98289C28.9374 1.57587 28.7721 1.18553 28.478 0.897729C28.1839 0.609927 27.7849 0.448242 27.3689 0.448242H17.9582C17.5423 0.448242 17.1433 0.609927 16.8492 0.897729C16.555 1.18553 16.3898 1.57587 16.3898 1.98289V11.1908C16.3898 11.5978 16.555 11.9881 16.8492 12.2759C17.1433 12.5637 17.5423 12.7254 17.9582 12.7254ZM2.27377 28.0718H11.6845C12.1004 28.0718 12.4994 27.9102 12.7935 27.6224C13.0877 27.3346 13.2529 26.9442 13.2529 26.5372V17.3293C13.2529 16.9223 13.0877 16.532 12.7935 16.2442C12.4994 15.9564 12.1004 15.7947 11.6845 15.7947H2.27377C1.85779 15.7947 1.45885 15.9564 1.16471 16.2442C0.870569 16.532 0.705322 16.9223 0.705322 17.3293V26.5372C0.705322 26.9442 0.870569 27.3346 1.16471 27.6224C1.45885 27.9102 1.85779 28.0718 2.27377 28.0718ZM22.6636 28.0718C26.1236 28.0718 28.9374 25.3187 28.9374 21.9333C28.9374 18.5478 26.1236 15.7947 22.6636 15.7947C19.2036 15.7947 16.3898 18.5478 16.3898 21.9333C16.3898 25.3187 19.2036 28.0718 22.6636 28.0718Z" fill="#545454"/>
</svg>
