<svg width="29" height="29" viewBox="0 0 29 29" fill="none" xmlns="http://www.w3.org/2000/svg">
<path d="M26.0623 0.606445H2.17365C1.59768 0.606445 1.0453 0.871021 0.638028 1.34197C0.230756 1.81291 0.00195313 2.45166 0.00195312 3.11768V25.7188C0.00195313 26.3848 0.230756 27.0235 0.638028 27.4945C1.0453 27.9654 1.59768 28.23 2.17365 28.23H26.0623C26.6383 28.23 27.1907 27.9654 27.5979 27.4945C28.0052 27.0235 28.234 26.3848 28.234 25.7188V3.11768C28.234 2.45166 28.0052 1.81291 27.5979 1.34197C27.1907 0.871021 26.6383 0.606445 26.0623 0.606445ZM8.68874 24.4631H4.34535C4.05736 24.4631 3.78117 24.3308 3.57754 24.0954C3.3739 23.8599 3.2595 23.5405 3.2595 23.2075V18.1851C3.2595 17.852 3.3739 17.5327 3.57754 17.2972C3.78117 17.0617 4.05736 16.9294 4.34535 16.9294C4.63333 16.9294 4.90952 17.0617 5.11316 17.2972C5.31679 17.5327 5.43119 17.852 5.43119 18.1851V21.9519H8.68874C8.97672 21.9519 9.25291 22.0842 9.45655 22.3197C9.66019 22.5551 9.77459 22.8745 9.77459 23.2075C9.77459 23.5405 9.66019 23.8599 9.45655 24.0954C9.25291 24.3308 8.97672 24.4631 8.68874 24.4631ZM24.9765 10.6514C24.9765 10.9844 24.8621 11.3037 24.6584 11.5392C24.4548 11.7747 24.1786 11.907 23.8906 11.907C23.6026 11.907 23.3264 11.7747 23.1228 11.5392C22.9192 11.3037 22.8048 10.9844 22.8048 10.6514V6.88452H19.5472C19.2592 6.88452 18.983 6.75223 18.7794 6.51676C18.5758 6.28129 18.4614 5.96192 18.4614 5.62891C18.4614 5.2959 18.5758 4.97653 18.7794 4.74105C18.983 4.50558 19.2592 4.37329 19.5472 4.37329H23.8906C24.1786 4.37329 24.4548 4.50558 24.6584 4.74105C24.8621 4.97653 24.9765 5.2959 24.9765 5.62891V10.6514Z" fill="#545454"/>
</svg>
