<svg width="32" height="29" viewBox="0 0 32 29" fill="none" xmlns="http://www.w3.org/2000/svg">
<path d="M1.55276 0.435547H29.5025C29.9143 0.435547 30.3092 0.597232 30.6004 0.885034C30.8916 1.17284 31.0552 1.56318 31.0552 1.97019V26.5245C31.0552 26.9315 30.8916 27.3219 30.6004 27.6097C30.3092 27.8975 29.9143 28.0591 29.5025 28.0591H1.55276C1.14094 28.0591 0.745993 27.8975 0.454793 27.6097C0.163594 27.3219 0 26.9315 0 26.5245V1.97019C0 1.56318 0.163594 1.17284 0.454793 0.885034C0.745993 0.597232 1.14094 0.435547 1.55276 0.435547ZM3.10552 3.50484V24.9899H27.9497V3.50484H3.10552ZM10.093 17.3166H18.6331C18.8391 17.3166 19.0365 17.2358 19.1821 17.0919C19.3277 16.948 19.4095 16.7528 19.4095 16.5493C19.4095 16.3458 19.3277 16.1506 19.1821 16.0067C19.0365 15.8628 18.8391 15.782 18.6331 15.782H12.4221C11.3925 15.782 10.4052 15.3778 9.67717 14.6583C8.94917 13.9388 8.54019 12.9629 8.54019 11.9454C8.54019 10.9278 8.94917 9.95199 9.67717 9.23248C10.4052 8.51298 11.3925 8.10877 12.4221 8.10877H13.9749V5.03948H17.0804V8.10877H20.9623V11.1781H12.4221C12.2162 11.1781 12.0187 11.2589 11.8731 11.4028C11.7275 11.5467 11.6457 11.7419 11.6457 11.9454C11.6457 12.1489 11.7275 12.3441 11.8731 12.488C12.0187 12.6319 12.2162 12.7127 12.4221 12.7127H18.6331C19.6627 12.7127 20.6501 13.1169 21.3781 13.8364C22.1061 14.5559 22.515 15.5318 22.515 16.5493C22.515 17.5668 22.1061 18.5427 21.3781 19.2622C20.6501 19.9817 19.6627 20.3859 18.6331 20.3859H17.0804V23.4552H13.9749V20.3859H10.093V17.3166Z" fill="#545454"/>
</svg>
